<?xml version="1.0" encoding="UTF-8" standalone="no"?>
<!DOCTYPE svg PUBLIC "-//W3C//DTD SVG 1.1//EN" "http://www.w3.org/Graphics/SVG/1.1/DTD/svg11.dtd">
<svg version="1.1" xmlns="http://www.w3.org/2000/svg" xmlns:dc="http://purl.org/dc/elements/1.1/" xmlns:xl="http://www.w3.org/1999/xlink" viewBox="-4.898305 -3 30 30" width="30" height="30">
  <defs/>
  <g id="Canvas_1" fill="none" stroke="none" stroke-dasharray="none" fill-opacity="1" stroke-opacity="1">
    <title>Canvas 1</title>
    <g id="Canvas_1_Layer_1">
      <title>Layer 1</title>
      <g id="Graphic_21"/>
      <g id="Graphic_3">
        <title>polygon4575</title>
        <path d="M 11.4 0 L 1 0 L -17763568e-22 0 L -17763568e-22 24 L 1 24 L 19 24 L 20 24 L 20 7.9 L 12.4 0 Z" fill="#286aa6"/>
      </g>
      <g id="Graphic_4">
        <title>polygon4582</title>
        <path d="M 11 1 L 2 1 L 1 1 L 1 23 L 2 23 L 18 23 L 19 23 L 19 8.3 L 12 1 Z" fill="#bfd7f0"/>
      </g>
      <g id="Graphic_5">
        <title>polygon4589</title>
        <path d="M 10.6 2 L 3 2 L 2 2 L 2 22 L 3 22 L 17 22 L 18 22 L 18 8.7 L 11.6 2 Z" fill="#6da5da"/>
      </g>
      <g id="Graphic_6">
        <title>path4598</title>
        <path d="M 11 9 C 11 9 16.2 7.5 20 9.4 C 20 9.3 20 7.9 20 7.9 L 12.4 0 C 12.4 0 10.6 0 10.4 0 C 13.1 3.7 11 9 11 9 Z" fill="#286aa6"/>
      </g>
      <g id="Graphic_7">
        <title>path4613</title>
        <path d="M 18.4 7.8 C 17.5 7.6 16.4 7.5 15.3 7.5 C 14.2 7.5 13.2 7.6 12.3 7.8 C 12.7 6.2 13 3.7 12.1 1.4 Z" fill="#c0d8f1"/>
      </g>
      <g id="Graphic_8">
        <title>path29</title>
        <path d="M 10.601695 17.5339 L 3.601695 17.5339 L 3.601695 16.533899 L 10.601695 16.533899 Z M 16.601695 14.533899 L 3.601695 14.533899 L 3.601695 15.533899 L 16.601695 15.533899 Z M 16.601695 12.533899 L 3.601695 12.533899 L 3.601695 13.533899 L 16.601695 13.533899 Z M 16.601695 10.533899 L 3.601695 10.533899 L 3.601695 11.533899 L 16.601695 11.533899 Z" fill="#bed6ef"/>
      </g>
      <g id="Graphic_20">
        <title>path57-4</title>
        <path d="M 23.54579 3.857757 C 24.11093 4.376932 24.148538 5.264099 23.629363 5.829239 L 19.125578 10.731764 C 18.606403 11.296904 17.719236 11.334512 17.154096 10.815337 L 16.640332 10.34336 C 16.075192 9.824184 16.037584 8.937017 16.55676 8.371877 L 21.060544 3.469352 C 21.57972 2.904212 22.466887 2.8666042 23.032027 3.3857795 Z" fill="#942326"/>
      </g>
      <g id="Graphic_19">
        <title>path64-9</title>
        <path d="M 18.611815 10.259787 C 18.328628 10.568045 17.934332 10.58476 17.626073 10.301573 L 17.11231 9.829596 C 16.804051 9.546409 16.787337 9.152113 17.070523 8.843854 L 21.574308 3.9413295 C 21.857495 3.6330712 22.25179 3.6163567 22.56005 3.899543 L 23.073813 4.3715207 C 23.38207 4.654707 23.398786 5.0490036 23.1156 5.357262 Z" fill="#a20f1f"/>
      </g>
      <g id="Graphic_18">
        <title>rect73-0</title>
        <path d="M 21.412103 5.14912 L 22.088071 4.4133054 L 22.584423 4.8692873 L 21.908455 5.605102 Z" fill="#c32e32"/>
      </g>
      <g id="Graphic_17">
        <title>rect32-5</title>
        <path d="M 22.553062 6.992095 L 15.294585 14.893197 L 12.73012 12.53731 L 19.988597 4.6362076 Z" fill="#b4af38"/>
      </g>
      <g id="Graphic_16">
        <title>rect5488-3</title>
        <path d="M 21.572918 7.0390234 L 14.789242 14.423289 L 13.228047 12.989071 L 20.011723 5.604806 Z" fill="#dbd88b"/>
      </g>
      <g id="Graphic_15">
        <title>rect46-9</title>
        <path d="M 20.579712 7.073952 L 14.488003 13.704987 L 13.982325 13.240438 L 20.074034 6.609403 Z" fill="#ebe8ba"/>
      </g>
      <g id="Graphic_14">
        <title>rect11-1</title>
        <path d="M 19.508382 5.1447624 L 22.089142 7.51562 L 21.615164 8.03156 L 19.034404 5.660703 Z" fill="#ccc"/>
      </g>
      <g id="Graphic_13">
        <title>rect11-0-2</title>
        <path d="M 19.981787 4.6351326 L 22.55331 6.997505 L 22.079334 7.513446 L 19.50781 5.1510733 Z" fill="#999"/>
      </g>
      <g id="Graphic_12">
        <title>path2960-8</title>
        <path d="M 12.86519 13.071888 L 11.318509 16.74303 L 14.750994 14.828398 Z" fill="#eeeff1"/>
        <path d="M 12.86519 13.071888 L 11.318509 16.74303 L 14.750994 14.828398 Z" stroke="#62656a" stroke-linecap="butt" stroke-linejoin="miter" stroke-width=".6442989"/>
      </g>
      <g id="Graphic_11">
        <title>path2982-1</title>
        <path d="M 11.955922 16.037412 L 13.229617 12.960683 C 13.762487 13.453149 13.844326 13.518669 14.818542 14.41308 Z" fill="#9c9ea3"/>
      </g>
    </g>
  </g>
</svg>
